<svg width="18" height="15" viewBox="0 0 18 15" fill="none" xmlns="http://www.w3.org/2000/svg">
<path d="M0.625 2.77125V3.03884L0.84765 3.18728L8.72265 8.43727L9 8.62218L9.27735 8.43727L17.1523 3.18728L17.375 3.03884V2.77125V2.5C17.375 2.05188 17.2153 1.61288 16.9171 1.28163C16.6175 0.948645 16.199 0.75 15.75 0.75H2.25C1.801 0.75 1.38255 0.948645 1.08286 1.28163C0.784732 1.61288 0.625 2.05188 0.625 2.5V2.77125ZM17.375 4.22875V3.29445L16.5976 3.81273L11.3011 7.34398L10.685 7.75479L11.2963 8.17275L16.5928 11.794L17.375 12.3288V11.3812V4.22875ZM17.3228 12.941L17.4037 12.6057L17.119 12.411L10.774 8.07227L10.4954 7.88178L10.2145 8.06888L9 8.87796L7.78545 8.06888L7.50463 7.88181L7.22608 8.07223L0.881077 12.4097L0.596555 12.6042L0.677094 12.9393C0.764156 13.3016 0.958549 13.6312 1.24027 13.8716C1.52307 14.113 1.87776 14.2499 2.24992 14.25H2.25H15.7499C15.75 14.25 15.75 14.25 15.75 14.25C16.1219 14.25 16.4764 14.1134 16.7592 13.8723L16.4349 13.4918L16.7592 13.8723C17.0409 13.6322 17.2354 13.303 17.3228 12.941ZM0.625 11.3812V12.3288L1.4072 11.794L6.7037 8.17275L7.31502 7.75479L6.69886 7.34398L1.40236 3.81273L0.625 3.29445V4.22875V11.3812ZM0.5 2.5C0.5 1.95356 0.695847 1.43873 1.03066 1.06672C1.3639 0.696443 1.80389 0.5 2.25 0.5H15.75C16.1961 0.5 16.6361 0.696443 16.9693 1.06672C17.3042 1.43873 17.5 1.95356 17.5 2.5V12.5C17.5 13.0464 17.3042 13.5613 16.9693 13.9333C16.6361 14.3036 16.1961 14.5 15.75 14.5H2.25C1.80389 14.5 1.3639 14.3036 1.03066 13.9333C0.695847 13.5613 0.5 13.0464 0.5 12.5V2.5Z" stroke="white"/>
</svg>
