<svg width="29" height="32" viewBox="0 0 29 32" fill="none" xmlns="http://www.w3.org/2000/svg">
<g clip-path="url(#clip0_1189_2421)">
<path d="M13.2635 27.2425C13.2156 27.4588 13.105 27.6509 12.9493 27.7881C12.7935 27.9254 12.6016 28 12.4041 28C12.3294 28.0004 12.255 27.9903 12.1826 27.97L8.63851 26.97C8.53985 26.942 8.44619 26.8951 8.36164 26.8312L5.70361 24.8312C5.50813 24.684 5.37246 24.4552 5.32646 24.1951C5.28045 23.9351 5.32788 23.665 5.45829 23.4444C5.58871 23.2237 5.79144 23.0706 6.02188 23.0187C6.25232 22.9668 6.4916 23.0203 6.68708 23.1675L9.21664 25.0712L12.6123 26.03C12.7257 26.061 12.8326 26.1171 12.9268 26.1949C13.021 26.2727 13.1007 26.3708 13.1612 26.4835C13.2217 26.5961 13.2619 26.7212 13.2795 26.8514C13.297 26.9817 13.2916 27.1146 13.2635 27.2425ZM27.9591 15.185C27.8864 15.4342 27.7707 15.6647 27.6186 15.8632C27.4665 16.0616 27.2811 16.2241 27.0731 16.3412L24.4505 17.8212L18.3503 24.7075C18.242 24.8296 18.1076 24.9179 17.9601 24.9639C17.8126 25.0099 17.657 25.012 17.5086 24.97L10.4205 22.97C10.3127 22.9394 10.2109 22.8864 10.1204 22.8137L3.97146 17.8587L1.28241 16.3412C0.862153 16.1041 0.54253 15.6883 0.393827 15.1853C0.245123 14.6823 0.279513 14.1332 0.489435 13.6587L3.2416 7.44749C3.45169 6.97316 3.82009 6.61241 4.26578 6.44458C4.71148 6.27674 5.19798 6.31556 5.61833 6.55249L8.0615 7.92749L13.9313 6.03499C14.0906 5.98358 14.2594 5.98358 14.4186 6.03499L20.2884 7.92749L22.7316 6.55249C23.152 6.31556 23.6385 6.27674 24.0842 6.44458C24.5299 6.61241 24.8983 6.97316 25.1083 7.44749L27.8605 13.6587C27.9655 13.8932 28.0282 14.1488 28.0452 14.4107C28.0621 14.6727 28.0328 14.9359 27.9591 15.185ZM22.8446 16.8025L19.831 9.99999H16.3069L11.518 15.25C12.9202 16.2612 15.1186 16.54 17.0911 14.2962C17.2451 14.121 17.4511 14.0162 17.6695 14.0022C17.8879 13.9881 18.1032 14.0657 18.2739 14.22L22.0848 17.6662L22.8446 16.8025ZM2.07429 14.5525L4.03348 15.6587L6.78565 9.44749L4.82646 8.34124L2.07429 14.5525ZM20.8212 19.0825L17.7522 16.3087C15.5882 18.3087 12.8404 18.5725 10.5634 16.9337C10.3394 16.7729 10.1503 16.5574 10.01 16.303C9.86974 16.0486 9.7819 15.7619 9.75298 15.4641C9.72406 15.1663 9.7548 14.8649 9.84293 14.5823C9.93105 14.2996 10.0743 14.043 10.2621 13.8312C10.2648 13.8276 10.2678 13.8242 10.271 13.8212L15.2393 8.38249L14.1761 8.03999L8.592 9.84124L5.56074 16.6825L11.0097 21.0762L17.4488 22.8925L20.8212 19.0825ZM26.2746 14.5525L23.5257 8.34124L21.5665 9.44749L24.3187 15.6587L26.2746 14.5525Z" fill="white"/>
</g>
<defs>
<clipPath id="clip0_1189_2421">
<rect width="28.3523" height="32" fill="white"/>
</clipPath>
</defs>
</svg>
