<svg width="33" height="32" viewBox="0 0 33 32" fill="none" xmlns="http://www.w3.org/2000/svg">
<path d="M28.143 8.26877L17.0709 2.25002C16.7751 2.08763 16.4426 2.00244 16.1047 2.00244C15.7667 2.00244 15.4342 2.08763 15.1384 2.25002L4.06634 8.27127C3.75014 8.44315 3.4862 8.69622 3.30206 9.00405C3.11792 9.31188 3.02035 9.66319 3.01953 10.0213V21.9763C3.02035 22.3344 3.11792 22.6857 3.30206 22.9935C3.4862 23.3013 3.75014 23.5544 4.06634 23.7263L15.1384 29.7475C15.4342 29.9099 15.7667 29.9951 16.1047 29.9951C16.4426 29.9951 16.7751 29.9099 17.0709 29.7475L28.143 23.7263C28.4592 23.5544 28.7231 23.3013 28.9073 22.9935C29.0914 22.6857 29.189 22.3344 29.1898 21.9763V10.0225C29.1896 9.6638 29.0924 9.31172 28.9082 9.00317C28.724 8.69462 28.4597 8.44096 28.143 8.26877ZM27.1767 21.9775L16.1047 28L5.03263 21.9775V10.0225L16.1047 4.00002L27.1767 10.0213V21.9775Z" fill="white"/>
</svg>
