<svg width="30" height="25" viewBox="0 0 30 25" fill="none" xmlns="http://www.w3.org/2000/svg">
<path d="M0.5 4.07813C0.5 2.99654 0.881919 1.95926 1.56174 1.19446C2.24156 0.429659 3.16359 0 4.125 0H25.875C26.8364 0 27.7584 0.429659 28.4383 1.19446C29.1181 1.95926 29.5 2.99654 29.5 4.07813V20.3907C29.5 21.4722 29.1181 22.5095 28.4383 23.2743C27.7584 24.0391 26.8364 24.4688 25.875 24.4688H4.125C3.16359 24.4688 2.24156 24.0391 1.56174 23.2743C0.881919 22.5095 0.5 21.4722 0.5 20.3907V4.07813ZM4.125 2.03907C3.64429 2.03907 3.18328 2.2539 2.84337 2.63629C2.50346 3.01869 2.3125 3.53734 2.3125 4.07813V4.52061L15 13.0847L27.6875 4.52061V4.07813C27.6875 3.53734 27.4965 3.01869 27.1566 2.63629C26.8167 2.2539 26.3557 2.03907 25.875 2.03907H4.125ZM27.6875 6.89816L19.1542 12.6585L27.6875 18.5657V6.89816ZM27.6259 20.9188L17.4034 13.8412L15 15.4622L12.5966 13.8412L2.37413 20.9167C2.47712 21.3506 2.70457 21.7342 3.02117 22.0077C3.33776 22.2813 3.72579 22.4297 4.125 22.4297H25.875C26.274 22.4298 26.6618 22.2817 26.9784 22.0086C27.2949 21.7354 27.5225 21.3523 27.6259 20.9188ZM2.3125 18.5657L10.8458 12.6585L2.3125 6.89816V18.5657Z" fill="black"/>
</svg>
