<svg width="33" height="32" viewBox="0 0 33 32" fill="none" xmlns="http://www.w3.org/2000/svg">
<path d="M25.3738 28H19.0989C20.153 27.0727 21.147 26.0811 22.0752 25.0312C25.5578 21.085 27.4038 16.925 27.4038 13C27.4038 10.0826 26.2275 7.28473 24.1337 5.22183C22.04 3.15893 19.2002 2 16.2392 2C13.2782 2 10.4385 3.15893 8.34472 5.22183C6.25097 7.28473 5.07471 10.0826 5.07471 13C5.07471 16.925 6.91559 21.085 10.4032 25.0312C11.3314 26.0811 12.3255 27.0727 13.3796 28H7.10462C6.83544 28 6.57728 28.1054 6.38694 28.2929C6.1966 28.4804 6.08966 28.7348 6.08966 29C6.08966 29.2652 6.1966 29.5196 6.38694 29.7071C6.57728 29.8946 6.83544 30 7.10462 30H25.3738C25.643 30 25.9012 29.8946 26.0915 29.7071C26.2819 29.5196 26.3888 29.2652 26.3888 29C26.3888 28.7348 26.2819 28.4804 26.0915 28.2929C25.9012 28.1054 25.643 28 25.3738 28ZM7.10462 13C7.10462 10.6131 8.06701 8.32387 9.78009 6.63604C11.4932 4.94821 13.8166 4 16.2392 4C18.6619 4 20.9853 4.94821 22.6984 6.63604C24.4115 8.32387 25.3738 10.6131 25.3738 13C25.3738 20.1537 18.3364 26.125 16.2392 27.75C14.1421 26.125 7.10462 20.1537 7.10462 13ZM21.314 13C21.314 12.0111 21.0164 11.0444 20.4588 10.2221C19.9011 9.3999 19.1086 8.75904 18.1813 8.3806C17.254 8.00216 16.2336 7.90315 15.2492 8.09607C14.2648 8.289 13.3605 8.7652 12.6508 9.46447C11.9411 10.1637 11.4578 11.0546 11.262 12.0245C11.0661 12.9945 11.1666 13.9998 11.5507 14.9134C11.9348 15.827 12.5853 16.6079 13.4198 17.1573C14.2544 17.7068 15.2355 18 16.2392 18C17.5851 18 18.8759 17.4732 19.8276 16.5355C20.7794 15.5979 21.314 14.3261 21.314 13ZM13.1944 13C13.1944 12.4067 13.3729 11.8266 13.7075 11.3333C14.0421 10.8399 14.5176 10.4554 15.074 10.2284C15.6304 10.0013 16.2426 9.94189 16.8333 10.0576C17.4239 10.1734 17.9664 10.4591 18.3923 10.8787C18.8181 11.2982 19.1081 11.8328 19.2256 12.4147C19.3431 12.9967 19.2828 13.5999 19.0523 14.1481C18.8219 14.6962 18.4316 15.1648 17.9309 15.4944C17.4301 15.8241 16.8415 16 16.2392 16C15.4317 16 14.6572 15.6839 14.0862 15.1213C13.5152 14.5587 13.1944 13.7956 13.1944 13Z" fill="white"/>
</svg>
