<svg width="27" height="27" viewBox="0 0 27 27" fill="none" xmlns="http://www.w3.org/2000/svg">
<path d="M25.9692 19.3205V23.0042C25.9706 23.3462 25.9004 23.6847 25.7632 23.998C25.6259 24.3114 25.4246 24.5926 25.1721 24.8238C24.9196 25.055 24.6215 25.231 24.2969 25.3406C23.9723 25.4501 23.6284 25.4908 23.2871 25.46C19.5011 25.0495 15.8644 23.7583 12.6692 21.6904C9.69649 19.8051 7.17614 17.2897 5.28715 14.3229C3.20784 11.1196 1.91384 7.47241 1.50999 3.67696C1.47924 3.3374 1.51968 2.99517 1.62872 2.67207C1.73776 2.34896 1.91301 2.05205 2.14333 1.80025C2.37364 1.54844 2.65397 1.34726 2.96646 1.2095C3.27895 1.07175 3.61676 1.00044 3.95837 1.00012H7.64941C8.2465 0.994254 8.82536 1.20528 9.27809 1.59385C9.73082 1.98243 10.0265 2.52204 10.1101 3.11212C10.2659 4.29099 10.5548 5.44849 10.9713 6.56254C11.1369 7.00204 11.1727 7.47968 11.0746 7.93888C10.9764 8.39807 10.7485 8.81957 10.4177 9.15342L8.85514 10.7129C10.6066 13.787 13.157 16.3323 16.2372 18.0803L17.7998 16.5209C18.1343 16.1907 18.5566 15.9632 19.0167 15.8653C19.4768 15.7673 19.9554 15.8031 20.3958 15.9683C21.512 16.384 22.6718 16.6724 23.853 16.8278C24.4507 16.912 24.9965 17.2124 25.3867 17.672C25.7769 18.1316 25.9842 18.7183 25.9692 19.3205Z" stroke="black" stroke-width="2" stroke-linecap="round" stroke-linejoin="round"/>
</svg>
