<svg width="15" height="15" viewBox="0 0 15 15" fill="none" xmlns="http://www.w3.org/2000/svg">
<path d="M14.9995 11.2304V13.4885C15.0004 13.6981 14.9574 13.9056 14.8732 14.0977C14.7891 14.2898 14.6657 14.4622 14.5109 14.6039C14.3561 14.7456 14.1734 14.8535 13.9744 14.9207C13.7754 14.9878 13.5646 15.0128 13.3554 14.9939C11.0346 14.7422 8.80532 13.9508 6.84668 12.6831C5.02441 11.5274 3.47945 9.98554 2.3215 8.16689C1.0469 6.20324 0.253681 3.96756 0.00612159 1.64096C-0.0127254 1.43282 0.0120608 1.22303 0.0789018 1.02497C0.145743 0.826907 0.253174 0.644904 0.394356 0.490549C0.535538 0.336194 0.707377 0.212869 0.898932 0.128425C1.09049 0.0439815 1.29756 0.000269792 1.50697 7.29762e-05H3.76956C4.13558 -0.00352226 4.49041 0.125833 4.76793 0.364029C5.04546 0.602224 5.22672 0.933007 5.27795 1.29472C5.37345 2.01736 5.55055 2.72691 5.80589 3.40981C5.90736 3.67922 5.92932 3.97202 5.86917 4.2535C5.80902 4.53498 5.66928 4.79336 5.4665 4.99801L4.50867 5.95394C5.58231 7.83837 7.14568 9.39864 9.03385 10.4702L9.99167 9.51422C10.1967 9.31185 10.4556 9.17238 10.7377 9.11235C11.0197 9.05232 11.3131 9.07423 11.583 9.17551C12.2673 9.43033 12.9782 9.60709 13.7023 9.7024C14.0687 9.75398 14.4033 9.93815 14.6424 10.2199C14.8816 10.5016 15.0087 10.8612 14.9995 11.2304Z" fill="white"/>
</svg>
